<?xml version="1.0" encoding="utf-8"?>
<!-- Generator: Adobe Illustrator 20.1.0, SVG Export Plug-In . SVG Version: 6.00 Build 0)  -->
<svg version="1.1" id="Layer_1" xmlns="http://www.w3.org/2000/svg" xmlns:xlink="http://www.w3.org/1999/xlink" x="0px" y="0px"
	 viewBox="0 0 50 50" style="enable-background:new 0 0 50 50;" xml:space="preserve">
<style type="text/css">
	.st0{fill:#F9F9F7;}
</style>
<g>
	<circle class="st0" cx="25" cy="25" r="5.3"/>
	<path class="st0" d="M37.5,15.6c-0.3-0.7-0.6-1.3-1.2-1.8c-0.6-0.6-1.1-0.9-1.8-1.2c-0.6-0.2-1.4-0.5-3-0.5
		c-1.7-0.1-2.2-0.1-6.5-0.1h0c-4.3,0-4.8,0-6.5,0.1c-1.6,0.1-2.4,0.3-3,0.5c-0.7,0.3-1.3,0.6-1.8,1.2c-0.6,0.6-0.9,1.1-1.2,1.8
		c-0.2,0.6-0.5,1.4-0.5,3c-0.1,1.7-0.1,2.2-0.1,6.5c0,4.3,0,4.8,0.1,6.5c0.1,1.6,0.3,2.4,0.5,3c0.3,0.7,0.6,1.3,1.2,1.8
		c0.6,0.6,1.1,0.9,1.8,1.2c0.6,0.2,1.4,0.5,3,0.5c1.7,0.1,2.2,0.1,6.5,0.1c4.3,0,4.8,0,6.5-0.1c1.6-0.1,2.4-0.3,3-0.5
		c0.7-0.3,1.3-0.6,1.8-1.2c0.6-0.6,0.9-1.1,1.2-1.8c0.2-0.6,0.5-1.4,0.5-3c0.1-1.7,0.1-2.2,0.1-6.5s0-4.8-0.1-6.5
		C38,17,37.7,16.1,37.5,15.6z M25,33.2c-4.5,0-8.2-3.7-8.2-8.2c0-4.5,3.7-8.2,8.2-8.2c4.5,0,8.2,3.7,8.2,8.2
		C33.2,29.5,29.5,33.2,25,33.2z M33.6,18.4c-1.1,0-1.9-0.9-1.9-1.9s0.9-1.9,1.9-1.9s1.9,0.9,1.9,1.9S34.6,18.4,33.6,18.4z"/>
	<path class="st0" d="M25,0.8C11.6,0.8,0.8,11.6,0.8,25S11.6,49.2,25,49.2S49.2,38.4,49.2,25S38.4,0.8,25,0.8z M40.9,31.6
		c-0.1,1.7-0.3,2.9-0.7,3.9c-0.4,1-1,1.9-1.8,2.8c-0.9,0.9-1.8,1.4-2.8,1.8c-1,0.4-2.2,0.7-3.9,0.7C29.9,41,29.3,41,25,41
		s-4.9,0-6.6-0.1c-1.7-0.1-2.9-0.3-3.9-0.7c-1-0.4-1.9-1-2.8-1.8c-0.9-0.9-1.4-1.8-1.9-2.8c-0.4-1-0.7-2.2-0.7-3.9
		C9,29.9,9,29.3,9,25s0-4.9,0.1-6.6c0.1-1.7,0.3-2.9,0.7-3.9c0.4-1.1,1-1.9,1.9-2.8c0.9-0.9,1.8-1.4,2.8-1.9c1-0.4,2.2-0.7,3.9-0.7
		C20.1,9,20.7,9,25,9l0,0c4.3,0,4.9,0,6.6,0.1c1.7,0.1,2.9,0.4,3.9,0.7c1,0.4,1.9,1,2.8,1.8c0.9,0.9,1.4,1.8,1.8,2.8
		c0.4,1,0.7,2.2,0.7,3.9C41,20.1,41,20.7,41,25S41,29.9,40.9,31.6z"/>
</g>
</svg>
