<?xml version="1.0" encoding="utf-8"?>
<!-- Generator: Adobe Illustrator 20.1.0, SVG Export Plug-In . SVG Version: 6.00 Build 0)  -->
<svg version="1.1" id="Layer_1" xmlns="http://www.w3.org/2000/svg" xmlns:xlink="http://www.w3.org/1999/xlink" x="0px" y="0px"
	 viewBox="0 0 50 50" style="enable-background:new 0 0 50 50;" xml:space="preserve">
<style type="text/css">
	.st0{fill:#FFFFFF;}
</style>
<path class="st0" d="M48.1,12.6c0-3.9-3.2-7.1-7.1-7.1H9.1c-3.9,0-7.1,3.2-7.1,7.1v24.8c0,3.9,3.2,7.1,7.1,7.1h31.9
	c3.9,0,7.1-3.2,7.1-7.1V12.6z M9.3,9.3L9.3,9.3l31.5,0c0.6,0,1.1,0.1,1.6,0.3L25,29.8L7.7,9.6C8.2,9.4,8.7,9.3,9.3,9.3z M5.3,36.8
	L5.3,36.8l0-23.6c0-0.1,0-0.2,0-0.2l11.5,13.5L5.5,37.8C5.4,37.5,5.3,37.2,5.3,36.8z M40.7,40.7H9.3c-0.3,0-0.7,0-1-0.1l11.2-11.2
	l5.6,6.5l5.6-6.5l11.2,11.2C41.4,40.7,41.1,40.7,40.7,40.7z M44.7,36.8c0,0.3,0,0.7-0.1,1L33.1,26.4l11.5-13.5c0,0.1,0,0.2,0,0.2
	V36.8z"/>
</svg>
