<?xml version="1.0" encoding="utf-8"?>
<!-- Generator: Adobe Illustrator 20.1.0, SVG Export Plug-In . SVG Version: 6.00 Build 0)  -->
<svg version="1.1" id="Layer_1" xmlns="http://www.w3.org/2000/svg" xmlns:xlink="http://www.w3.org/1999/xlink" x="0px" y="0px"
	 viewBox="0 0 129.9 45.1" style="enable-background:new 0 0 129.9 45.1;" xml:space="preserve">
<style type="text/css">
	.st0{fill:#F9F9F7;}
</style>
<g>
	<path class="st0" d="M1,20.6c-0.1-0.2-0.2-0.5-0.2-0.7s0.1-0.5,0.3-0.9s0.4-0.8,0.8-1.4L3,15.7l1.4-2.2l1.5-2.4l1.6-2.4
		c-2,0.5-3.6,1.1-4.6,1.8c-0.2,0.1-0.3,0.2-0.5,0.4L2,11.3c-0.3,0.3-0.5,0.4-0.8,0.4s-0.4,0-0.6-0.1s-0.2-0.2-0.3-0.3
		c-0.2-0.2-0.2-0.5-0.1-0.8c0.4-1.2,0.9-2.4,1.5-3.6c0.4-0.7,0.7-1.1,0.9-1.2c1.6-0.7,4.9-1.2,10-1.5C14.2,4.1,16,4,17.8,4
		c1.2,0,2.3,0.4,3.4,1.3c1.2,1,1.8,2.2,1.8,3.6c0,1.9-1.6,3.7-4.9,5.4c-1.8,0.9-3.5,1.6-5.1,2c-0.4,0.1-0.7,0.1-1,0.1
		s-0.5,0-0.8-0.1s-0.5-0.1-0.8-0.3c-0.5-0.3-0.8-0.6-0.8-1c0-0.5,0.5-1.1,1.6-1.6l2.7-1.5c1.6-0.9,2.6-1.5,3-1.9s0.6-0.7,0.6-1
		c0-0.2,0-0.5-0.1-0.7S17.2,7.9,17,7.7c-0.4-0.4-0.7-0.5-1.2-0.5c-0.9,0-1.9,0.1-3.1,0.2l-1.5,2.7c-2,3.6-3.3,6.8-4,9.6
		c-0.3,1.1-1.4,1.7-3.2,1.7C2.4,21.7,1.4,21.3,1,20.6z"/>
	<path class="st0" d="M35.5,13.6c0,0.5,0.4,0.7,1.2,0.7c0.6,0,1.3-0.3,2.2-0.8l1-0.6c0.3-0.2,0.6-0.3,0.8-0.3s0.4,0.1,0.5,0.2
		c0.1,0.1,0.2,0.3,0.2,0.6s-0.1,0.5-0.3,0.9c-0.2,0.3-0.4,0.7-0.7,1c-0.3,0.4-0.6,0.7-1,1.1s-0.8,0.7-1.3,1c-1,0.6-1.9,0.9-2.8,0.9
		c-0.9,0-1.6-0.2-2.2-0.5c-0.2-0.1-0.3-0.2-0.5-0.3c-0.9,1-2.2,2-3.9,2.8c-1.8,0.9-3.4,1.4-4.8,1.4c-1.4,0-2.5-0.6-3.4-1.7
		c-0.7-0.9-1-1.8-1-2.8c0-1.3,0.7-2.6,2.2-3.8c1.1-0.9,2.1-1.6,3.1-2c1-0.5,1.9-0.8,2.7-1.1c1.7-0.5,3.2-0.8,4.6-0.8
		c0.6,0,1.1,0.1,1.6,0.3s0.8,0.5,1.1,0.7c0.5,0.5,0.8,1.2,0.8,2c0,0.2,0,0.4-0.1,0.6S35.5,13.5,35.5,13.6z M25.2,16L25.2,16L25.2,16
		c0,0.4,0.1,0.6,0.2,0.8c0.4,0.2,0.8,0.3,1.2,0.2c0.4-0.1,0.8-0.3,1.2-0.4c1-0.4,1.8-0.9,2.6-1.6c-0.1-0.3-0.2-0.5-0.2-0.8
		c0-0.6,0.3-1.2,0.8-1.8c-0.7,0-1.6,0.3-2.7,0.9c-1.3,0.7-2.2,1.4-2.8,2.2C25.3,15.7,25.2,15.9,25.2,16z"/>
	<path class="st0" d="M43.7,18.3c0.3-0.1,0.7-0.3,1.2-0.6c3-1.6,4.7-2.4,5-2.6l0.5-0.3c0.5-0.4,0.8-0.6,0.8-0.8
		c-0.1-0.4-0.3-0.6-0.7-0.5s-0.8,0.2-1.2,0.3s-0.8,0.3-1.3,0.5c-0.9,0.4-1.8,0.8-2.5,1.2c-2.5,1.4-4,2.3-4.5,2.6
		c-0.4,0.8-0.7,1.6-1,2.4l-1.5,4.3c-0.5,1.3-1,2.2-1.4,2.7c-0.3,0.3-0.6,0.4-0.9,0.4c-0.8,0-1.4-0.3-1.9-0.8s-0.7-1.2-0.7-2.1
		s0.1-1.7,0.3-2.5s0.5-1.6,0.9-2.5c0.8-1.7,1.8-3.3,3.1-4.8c0.8-2.1,2.1-4.2,4-6.2c1.1-1.2,2.2-2.1,3.2-2.6C45.6,6.1,46,6,46.3,6
		s0.6,0.1,0.8,0.2c0.2,0.2,0.3,0.3,0.3,0.6c0,0.2-0.1,0.5-0.2,0.9c-0.1,0.4-0.3,0.7-0.6,1.2c-0.2,0.4-0.5,0.9-0.9,1.4l-1,1.5
		c0,0.1,0,0.3,0,0.4c0,0.2,0.1,0.2,0.3,0.2s0.6-0.1,1.2-0.4l2-0.9c1.8-0.8,3.5-1.2,5.1-1.2c0.8,0,1.6,0.4,2.4,1.2
		c0.7,0.8,1.1,1.7,1.1,2.6c0,1.4-0.6,2.5-1.8,3.3l-1.6,1c-0.6,0.4-1.1,0.7-1.7,1l-1.8,1c-2,1.1-3.6,1.6-4.7,1.6
		c-1.1,0-1.9-0.1-2.4-0.4S42,20.5,42,20C42,19.3,42.5,18.8,43.7,18.3z"/>
	<path class="st0" d="M67.7,22c-1.7,0-3.4-1.1-5.1-3.3l-1.5,1.1c-1.6,1.1-2.6,1.7-3.1,1.7c-0.6,0-1.1-0.2-1.6-0.7
		c-0.1-0.1-0.2-0.3-0.3-0.4c-0.2-0.3-0.4-1.1-0.4-2.4s0.1-2.5,0.4-3.7s0.7-2.2,1.1-3.2c0.7-1.5,1.9-3.2,3.4-5.1
		c0.9-1.3,1.9-2.3,3.2-3.1c1.1-0.7,2-1,2.7-1c0.4,0,0.7,0.1,1,0.3s0.4,0.4,0.4,0.7s-0.1,0.6-0.4,1c-2.8,4-4.4,6.4-4.8,7.1
		c-0.4,0.7-0.7,1.2-0.9,1.6c-0.2,0.4-0.3,0.6-0.4,0.8s-0.2,0.4-0.2,0.6c-0.2,0.5-0.3,0.8-0.3,1s0.2,0.3,0.5,0.3s1.1-0.8,2.3-2.3
		l1.7-2.1c0.6-0.8,1.3-1.3,1.9-1.6C68,9,68.5,8.9,69,8.9c1.4,0,2.1,0.3,2.1,1c0,0.6-0.5,1.5-1.4,2.6c-0.1,0.1-0.3,0.3-0.5,0.5
		l-1.7,1.6l-1.1,1c0.8,0.9,1.6,1.6,2.3,2c0.2,0.1,0.3,0.1,0.4,0.1s0.3-0.1,0.7-0.2c0.3-0.2,0.7-0.4,1.1-0.6s0.8-0.5,1.3-0.8l3.5-2.5
		c0.3-0.2,0.6-0.4,0.9-0.4c0.6,0,0.9,0.3,0.9,0.8c0,0.7-0.3,1.5-1,2.4c-0.2,0.3-0.4,0.5-0.6,0.7l-0.8,0.7c-2.3,2.1-4.3,3.5-6.1,4.2
		C68.7,21.9,68.2,22,67.7,22z"/>
	<path class="st0" d="M89.1,13.6c0,0.5,0.4,0.7,1.2,0.7c0.6,0,1.3-0.3,2.2-0.8l1-0.6c0.3-0.2,0.6-0.3,0.8-0.3s0.4,0.1,0.5,0.2
		c0.1,0.1,0.2,0.3,0.2,0.6s-0.1,0.5-0.3,0.9s-0.4,0.7-0.7,1c-0.3,0.4-0.6,0.7-1,1.1s-0.8,0.7-1.3,1c-1,0.6-1.9,0.9-2.8,0.9
		s-1.6-0.2-2.2-0.5c-0.2-0.1-0.3-0.2-0.5-0.3c-0.9,1-2.2,2-3.9,2.8c-1.8,0.9-3.4,1.4-4.8,1.4S75,21.1,74.1,20c-0.7-0.9-1-1.8-1-2.8
		c0-1.3,0.7-2.6,2.2-3.8c1.1-0.9,2.1-1.6,3.1-2c1-0.5,1.9-0.8,2.7-1.1c1.7-0.5,3.2-0.8,4.6-0.8c0.6,0,1.1,0.1,1.6,0.3
		s0.8,0.5,1.1,0.7c0.5,0.5,0.8,1.2,0.8,2c0,0.2,0,0.4-0.1,0.6S89.1,13.5,89.1,13.6z M78.8,16L78.8,16L78.8,16c0,0.4,0.1,0.6,0.2,0.8
		c0.4,0.2,0.8,0.3,1.2,0.2c0.4-0.1,0.8-0.3,1.2-0.4c1-0.4,1.8-0.9,2.6-1.6c-0.1-0.3-0.2-0.5-0.2-0.8c0-0.6,0.3-1.2,0.8-1.8
		c-0.7,0-1.6,0.3-2.7,0.9c-1.3,0.7-2.2,1.4-2.8,2.2C78.9,15.7,78.8,15.9,78.8,16z"/>
	<path class="st0" d="M92.2,17.2c-0.2,0-0.3,0-0.5-0.1s-0.3-0.2-0.4-0.4c-0.3-0.4-0.4-0.9-0.4-1.5c0-0.7,0.4-1.5,1.2-2.5
		c0.8-1,1.7-1.8,2.8-2.5C96,9.4,97,9,97.8,9c0.7,0,1.2,0.2,1.4,0.6l0.2,0.3c0.1,0.2,0.3,0.3,0.4,0.3s0.3,0,0.6,0l1.8-0.1
		c0.3,0,0.5,0,0.7,0s0.3,0.1,0.5,0.2c0.2,0.1,0.4,0.3,0.5,0.4c0.4,0.4,0.5,0.9,0.5,1.4s-0.6,1.3-1.7,2.5l-0.8,0.8
		c-0.6,0.6-0.9,1-0.9,1.2s0.1,0.3,0.2,0.4c0.2,0.1,0.3,0.2,0.5,0.2s0.4,0,0.6-0.1s0.5-0.2,0.8-0.4c0.3-0.2,0.7-0.4,1.1-0.7
		c1.2-0.8,1.9-1.3,2.3-1.6l1-0.7c0.7-0.5,1.2-0.8,1.5-0.8s0.5,0.1,0.7,0.2s0.3,0.4,0.3,0.7s-0.2,0.7-0.5,1.3c-0.3,0.6-0.7,1-1.1,1.4
		s-0.8,0.8-1.1,1.1c-0.4,0.3-0.8,0.7-1.3,1.1s-1,0.8-1.6,1.2s-1.2,0.8-1.9,1.1c-1.5,0.7-2.9,1.1-4.1,1.1c-1.8,0-3-0.5-3.4-1.4
		c-0.1-0.3-0.2-0.6-0.2-1s0.1-0.7,0.2-1.1s0.3-0.8,0.5-1.2c0.4-0.8,1-1.5,1.6-2.1c0.5-0.5,0.8-0.8,0.8-0.9c0-0.2-0.1-0.3-0.3-0.3
		c-0.2,0-0.4-0.1-0.8-0.1c-0.2,0-0.5,0.2-1,0.7l-1.1,0.8C93.4,16.6,92.6,17.2,92.2,17.2z"/>
	<path class="st0" d="M121.9,14.6c0,0.8,0.2,1.1,0.7,1.1c1.1,0,2.5-0.7,4.3-2.2l0.3-0.3c0.7-0.5,1.2-0.7,1.7-0.7
		c0.4,0,0.7,0.1,0.8,0.2c0.1,0.1,0.2,0.3,0.2,0.6c0,0.6-0.3,1.3-0.9,2c-0.9,1.1-2.2,2.2-3.9,3.3c-1.9,1.2-3.6,1.8-5.1,1.8
		c-1.1,0-1.7-0.6-2-1.8c-0.1-0.3-0.1-0.6-0.2-0.9c-0.1-0.7-0.2-1-0.3-1.1c-0.1-0.1-0.3-0.1-0.5,0c-0.3,0.1-0.6,0.2-1,0.4
		c-0.4,0.2-0.8,0.5-1.2,0.8c-2.4,1.6-3.8,2.5-4.1,2.7c-0.9,0.5-1.5,0.8-1.8,0.8s-0.6-0.1-0.9-0.2s-0.5-0.3-0.8-0.5
		c-0.5-0.4-0.7-0.9-0.7-1.3c0-2.5,0.6-4.8,1.7-6.7c0.7-1.3,1.6-2.2,2.7-2.7c0.5-0.3,1.1-0.4,1.8-0.4c1.2,0,1.7,0.4,1.7,1.1
		c0,0.5-0.3,1.2-0.8,2.3l-0.4,0.7c-0.3,0.5-0.4,0.8-0.4,0.9c0.1,0.3,0.2,0.4,0.3,0.4c0.2,0,0.5-0.1,0.9-0.4l2.3-1.7l1.2-0.8
		c1.3-0.9,2.3-1.3,3-1.3c0.3,0,0.6,0.1,0.9,0.4c0.5,0.5,0.8,0.9,0.8,1.3c0,0.1,0,0.3,0,0.4s0,0.3-0.1,0.5l-0.1,0.6
		C121.9,14.3,121.9,14.5,121.9,14.6z"/>
</g>
<g>
	<path class="st0" d="M29.4,37.1v0.1c0,0.2-0.1,0.3-0.3,0.3h-1.6v4.7c0,0.2-0.1,0.3-0.3,0.3H27c-0.2,0-0.3-0.1-0.3-0.3v-4.7h-1.6
		c-0.2,0-0.3-0.1-0.3-0.3v-0.1c0-0.2,0.1-0.3,0.3-0.3h4.1C29.3,36.8,29.4,36.9,29.4,37.1z"/>
	<path class="st0" d="M30.2,42.3v-5.3c0-0.2,0.1-0.3,0.3-0.3h0.2c0.2,0,0.3,0.1,0.3,0.3v2.3c0.2-0.6,0.7-0.9,1.4-0.9
		c0.9,0,1.6,0.6,1.6,1.9v2c0,0.2-0.1,0.3-0.3,0.3h-0.2c-0.2,0-0.3-0.1-0.3-0.3v-2c0-0.8-0.4-1.1-0.8-1.1c-0.4,0-1.3,0.3-1.3,1.5v1.6
		c0,0.2-0.1,0.3-0.3,0.3h-0.2C30.3,42.6,30.2,42.5,30.2,42.3z"/>
	<path class="st0" d="M34.8,40.5c0-1.2,0.9-2.2,2.2-2.2c1,0,2,0.6,2.1,1.9c0,0.2-0.1,0.3-0.3,0.3h-3.2c0,0.8,0.6,1.3,1.5,1.3
		c0.4,0,0.8-0.1,1.1-0.3c0.2-0.1,0.3-0.1,0.4,0l0.1,0.1c0.1,0.1,0.1,0.3-0.1,0.5c-0.5,0.4-1,0.5-1.5,0.5
		C35.7,42.6,34.8,41.7,34.8,40.5z M38.3,40c-0.2-0.7-0.8-0.9-1.2-0.9c-0.5,0-1.1,0.2-1.3,0.9H38.3z"/>
	<path class="st0" d="M41.9,40.6c0-1.2,0.8-2.2,2.3-2.2c0.3,0,0.8,0.1,1.2,0.3c0.2,0.1,0.2,0.3,0.1,0.4l-0.1,0.1
		c-0.1,0.2-0.2,0.2-0.4,0.1c-0.4-0.2-0.7-0.2-0.8-0.2c-0.9,0-1.5,0.6-1.5,1.4s0.6,1.4,1.5,1.4c0.1,0,0.4,0,0.8-0.2
		c0.2-0.1,0.3-0.1,0.4,0.1l0.1,0.1c0.1,0.2,0.1,0.4-0.2,0.5c-0.4,0.2-0.8,0.3-1.1,0.3C42.7,42.6,41.9,41.7,41.9,40.6z"/>
	<path class="st0" d="M46.5,42.3v-3.5c0-0.2,0.1-0.3,0.3-0.3h0.2c0.2,0,0.3,0.1,0.3,0.3v0.6c0.1-0.7,0.6-1,1.1-1l0.2,0
		c0.2,0,0.2,0.2,0.2,0.3v0.2c0,0.2-0.1,0.3-0.2,0.3c-0.1,0-0.1,0-0.2,0c-0.3,0-1,0.1-1,1.8v1.3c0,0.2-0.1,0.3-0.3,0.3h-0.2
		C46.6,42.6,46.5,42.5,46.5,42.3z"/>
	<path class="st0" d="M49.2,40.5c0-1.2,0.9-2.2,2.2-2.2c1,0,2,0.6,2.1,1.9c0,0.2-0.1,0.3-0.3,0.3H50c0,0.8,0.6,1.3,1.5,1.3
		c0.4,0,0.8-0.1,1.1-0.3c0.2-0.1,0.3-0.1,0.4,0l0.1,0.1c0.1,0.1,0.1,0.3-0.1,0.5c-0.5,0.4-1,0.5-1.5,0.5
		C50,42.6,49.2,41.7,49.2,40.5z M52.6,40c-0.2-0.7-0.8-0.9-1.2-0.9c-0.5,0-1.1,0.2-1.3,0.9H52.6z"/>
	<path class="st0" d="M54.1,40.5c0-1.2,0.8-2.1,2-2.1c0.5,0,1.1,0.2,1.5,0.7v-0.4c0-0.2,0.1-0.3,0.3-0.3h0.2c0.2,0,0.3,0.1,0.3,0.3
		v3.5c0,0.2-0.1,0.3-0.3,0.3h-0.2c-0.2,0-0.3-0.1-0.3-0.3v-0.4c-0.4,0.5-0.9,0.7-1.5,0.7C54.9,42.6,54.1,41.7,54.1,40.5z M57.6,40.5
		c0-0.8-0.6-1.4-1.4-1.4c-0.8,0-1.3,0.6-1.3,1.4c0,0.8,0.5,1.4,1.3,1.4C57,41.9,57.6,41.3,57.6,40.5z"/>
	<path class="st0" d="M59.8,41.3v-2.1h-0.5c-0.1,0-0.2-0.1-0.2-0.2v-0.3c0-0.1,0.1-0.2,0.2-0.2h0.5l0.1-0.9c0-0.2,0.1-0.2,0.3-0.2
		h0.2c0.2,0,0.2,0.1,0.2,0.3v0.9h1.1c0.1,0,0.2,0.1,0.2,0.2v0.3c0,0.1-0.1,0.2-0.2,0.2h-1.1v2.2c0,0.4,0.2,0.6,0.5,0.6
		c0.3,0,0.5-0.1,0.5-0.4c0,0,0-0.1,0-0.2c0-0.1,0-0.2,0.1-0.2h0.4c0.1,0,0.2,0,0.2,0.1c0,0.1,0,0.3,0,0.3c0,0.6-0.4,1.1-1.2,1.1
		C60.5,42.6,59.8,42.3,59.8,41.3z"/>
	<path class="st0" d="M63,37.1c0-0.3,0.2-0.6,0.6-0.6c0.3,0,0.6,0.3,0.6,0.6c0,0.3-0.3,0.6-0.6,0.6C63.2,37.7,63,37.5,63,37.1z
		 M63.1,42.3v-3.5c0-0.2,0.1-0.3,0.3-0.3h0.2c0.2,0,0.3,0.1,0.3,0.3v3.5c0,0.2-0.1,0.3-0.3,0.3h-0.2C63.3,42.6,63.1,42.5,63.1,42.3z
		"/>
	<path class="st0" d="M66.3,42.3l-1.4-3.5c-0.1-0.2,0-0.3,0.2-0.3h0.3c0.2,0,0.3,0.1,0.3,0.2l1.1,2.9l1.1-2.9
		c0.1-0.2,0.2-0.2,0.3-0.2h0.3c0.2,0,0.3,0.1,0.2,0.3l-1.4,3.5c-0.1,0.2-0.2,0.2-0.4,0.2h-0.4C66.5,42.6,66.4,42.5,66.3,42.3z"/>
	<path class="st0" d="M69.3,40.5c0-1.2,0.9-2.2,2.2-2.2c1,0,2,0.6,2.1,1.9c0,0.2-0.1,0.3-0.3,0.3h-3.2c0,0.8,0.6,1.3,1.5,1.3
		c0.4,0,0.8-0.1,1.1-0.3c0.2-0.1,0.3-0.1,0.4,0l0.1,0.1c0.1,0.1,0.1,0.3-0.1,0.5c-0.5,0.4-1,0.5-1.5,0.5
		C70.2,42.6,69.3,41.7,69.3,40.5z M72.7,40c-0.2-0.7-0.8-0.9-1.2-0.9c-0.5,0-1.1,0.2-1.3,0.9H72.7z"/>
	<path class="st0" d="M76.3,40.5c0-1.2,0.8-2.1,2-2.1c0.5,0,1.1,0.2,1.5,0.7v-0.4c0-0.2,0.1-0.3,0.3-0.3h0.2c0.2,0,0.3,0.1,0.3,0.3
		v3.5c0,0.2-0.1,0.3-0.3,0.3h-0.2c-0.2,0-0.3-0.1-0.3-0.3v-0.4c-0.4,0.5-0.9,0.7-1.5,0.7C77.1,42.6,76.3,41.7,76.3,40.5z M79.8,40.5
		c0-0.8-0.6-1.4-1.4-1.4c-0.8,0-1.3,0.6-1.3,1.4c0,0.8,0.5,1.4,1.3,1.4C79.3,41.9,79.8,41.3,79.8,40.5z"/>
	<path class="st0" d="M82.2,44.1c-0.1-0.1-0.2-0.2-0.1-0.4l0.1-0.1c0.1-0.2,0.2-0.2,0.4-0.1c0.4,0.2,0.8,0.3,1.2,0.3
		c0.8,0,1.3-0.5,1.3-1.3v-0.5c-0.4,0.5-0.9,0.7-1.5,0.7c-1.2,0-2-1-2-2.1c0-1.2,0.8-2.1,2-2.1c0.5,0,1.1,0.2,1.5,0.7v-0.4
		c0-0.2,0.1-0.3,0.3-0.3h0.2c0.2,0,0.3,0.1,0.3,0.3v3.7c0,1.4-1,2-2.2,2C83.1,44.5,82.6,44.3,82.2,44.1z M85.1,40.5
		c0-0.8-0.6-1.4-1.4-1.4c-0.8,0-1.3,0.6-1.3,1.4c0,0.8,0.5,1.4,1.3,1.4C84.6,41.9,85.1,41.3,85.1,40.5z"/>
	<path class="st0" d="M86.9,40.5c0-1.2,0.9-2.2,2.2-2.2c1,0,2,0.6,2.1,1.9c0,0.2-0.1,0.3-0.3,0.3h-3.2c0,0.8,0.6,1.3,1.5,1.3
		c0.4,0,0.8-0.1,1.1-0.3c0.2-0.1,0.3-0.1,0.4,0l0.1,0.1c0.1,0.1,0.1,0.3-0.1,0.5c-0.5,0.4-1,0.5-1.5,0.5
		C87.8,42.6,86.9,41.7,86.9,40.5z M90.4,40c-0.2-0.7-0.8-0.9-1.2-0.9c-0.5,0-1.1,0.2-1.3,0.9H90.4z"/>
	<path class="st0" d="M92.1,42.3v-3.5c0-0.2,0.1-0.3,0.3-0.3h0.2c0.2,0,0.3,0.1,0.3,0.3v0.5c0.2-0.6,0.7-0.9,1.4-0.9
		c0.9,0,1.6,0.6,1.6,1.9v2c0,0.2-0.1,0.3-0.3,0.3h-0.2c-0.2,0-0.3-0.1-0.3-0.3v-2c0-0.8-0.4-1.1-0.8-1.1c-0.4,0-1.3,0.3-1.3,1.5v1.6
		c0,0.2-0.1,0.3-0.3,0.3h-0.2C92.2,42.6,92.1,42.5,92.1,42.3z"/>
	<path class="st0" d="M96.8,40.6c0-1.2,0.8-2.2,2.3-2.2c0.3,0,0.8,0.1,1.2,0.3c0.2,0.1,0.2,0.3,0.1,0.4l-0.1,0.1
		c-0.1,0.2-0.2,0.2-0.4,0.1c-0.4-0.2-0.7-0.2-0.8-0.2c-0.9,0-1.5,0.6-1.5,1.4s0.6,1.4,1.5,1.4c0.1,0,0.4,0,0.8-0.2
		c0.2-0.1,0.3-0.1,0.4,0.1l0.1,0.1c0.1,0.2,0.1,0.4-0.2,0.5c-0.4,0.2-0.8,0.3-1.1,0.3C97.6,42.6,96.8,41.7,96.8,40.6z"/>
	<path class="st0" d="M102,44.1l0.6-1.6l-1.6-3.6c-0.1-0.2,0-0.3,0.2-0.3h0.3c0.2,0,0.3,0.1,0.3,0.2l1.1,2.8l1-2.8
		c0.1-0.2,0.2-0.2,0.4-0.2h0.3c0.2,0,0.3,0.1,0.2,0.3l-2.3,5.4c-0.1,0.2-0.2,0.2-0.3,0.2h-0.2C102,44.4,101.9,44.3,102,44.1z"/>
</g>
</svg>
