<?xml version="1.0" encoding="utf-8"?>
<!-- Generator: Adobe Illustrator 20.1.0, SVG Export Plug-In . SVG Version: 6.00 Build 0)  -->
<svg version="1.1" id="Layer_1" xmlns="http://www.w3.org/2000/svg" xmlns:xlink="http://www.w3.org/1999/xlink" x="0px" y="0px"
	 viewBox="0 0 134.5 31.1" style="enable-background:new 0 0 134.5 31.1;" xml:space="preserve">
<style type="text/css">
	.st0{fill:#1E1E1E;}
</style>
<g>
	<path class="st0" d="M3.3,21.3c-0.1-0.2-0.2-0.5-0.2-0.7s0.1-0.5,0.3-0.9s0.4-0.8,0.8-1.4l1.1-1.9l1.4-2.2l1.5-2.4l1.6-2.4
		c-2,0.5-3.6,1.1-4.6,1.8c-0.2,0.1-0.3,0.2-0.5,0.4L4.3,12c-0.3,0.3-0.5,0.4-0.8,0.4s-0.4,0-0.6-0.1S2.7,12.1,2.6,12
		c-0.2-0.2-0.2-0.5-0.1-0.8C2.9,10,3.4,8.8,4,7.6c0.4-0.7,0.7-1.1,0.9-1.2c1.6-0.7,4.9-1.2,10-1.5c1.6-0.1,3.4-0.2,5.2-0.2
		c1.2,0,2.3,0.4,3.4,1.3c1.2,1,1.8,2.2,1.8,3.6c0,1.9-1.6,3.7-4.9,5.4c-1.8,0.9-3.5,1.6-5.1,2c-0.4,0.1-0.7,0.1-1,0.1
		s-0.5,0-0.8-0.1s-0.5-0.1-0.8-0.3c-0.5-0.3-0.8-0.6-0.8-1c0-0.5,0.5-1.1,1.6-1.6l2.7-1.5c1.6-0.9,2.6-1.5,3-1.9s0.6-0.7,0.6-1
		c0-0.2,0-0.5-0.1-0.7s-0.2-0.4-0.4-0.6c-0.4-0.4-0.7-0.5-1.2-0.5c-0.9,0-1.9,0.1-3.1,0.2l-1.5,2.7c-2,3.6-3.3,6.8-4,9.6
		c-0.3,1.1-1.4,1.7-3.2,1.7C4.7,22.4,3.7,22,3.3,21.3z"/>
	<path class="st0" d="M37.8,14.3c0,0.5,0.4,0.7,1.2,0.7c0.6,0,1.3-0.3,2.2-0.8l1-0.6c0.3-0.2,0.6-0.3,0.8-0.3s0.4,0.1,0.5,0.2
		c0.1,0.1,0.2,0.3,0.2,0.6s-0.1,0.5-0.3,0.9c-0.2,0.3-0.4,0.7-0.7,1c-0.3,0.4-0.6,0.7-1,1.1s-0.8,0.7-1.3,1c-1,0.6-1.9,0.9-2.8,0.9
		c-0.9,0-1.6-0.2-2.2-0.5c-0.2-0.1-0.3-0.2-0.5-0.3c-0.9,1-2.2,2-3.9,2.8c-1.8,0.9-3.4,1.4-4.8,1.4c-1.4,0-2.5-0.6-3.4-1.7
		c-0.7-0.9-1-1.8-1-2.8c0-1.3,0.7-2.6,2.2-3.8c1.1-0.9,2.1-1.6,3.1-2c1-0.5,1.9-0.8,2.7-1.1c1.7-0.5,3.2-0.8,4.6-0.8
		c0.6,0,1.1,0.1,1.6,0.3s0.8,0.5,1.1,0.7c0.5,0.5,0.8,1.2,0.8,2c0,0.2,0,0.4-0.1,0.6S37.8,14.2,37.8,14.3z M27.5,16.7L27.5,16.7
		L27.5,16.7c0,0.4,0.1,0.6,0.2,0.8c0.4,0.2,0.8,0.3,1.2,0.2c0.4-0.1,0.8-0.3,1.2-0.4c1-0.4,1.8-0.9,2.6-1.6
		c-0.1-0.3-0.2-0.5-0.2-0.8c0-0.6,0.3-1.2,0.8-1.8c-0.7,0-1.6,0.3-2.7,0.9c-1.3,0.7-2.2,1.4-2.8,2.2C27.6,16.4,27.5,16.6,27.5,16.7z
		"/>
	<path class="st0" d="M46,19c0.3-0.1,0.7-0.3,1.2-0.6c3-1.6,4.7-2.4,5-2.6l0.5-0.3c0.5-0.4,0.8-0.6,0.8-0.8
		c-0.1-0.4-0.3-0.6-0.7-0.5s-0.8,0.2-1.2,0.3s-0.8,0.3-1.3,0.5c-0.9,0.4-1.8,0.8-2.5,1.2c-2.5,1.4-4,2.3-4.5,2.6
		c-0.4,0.8-0.7,1.6-1,2.4l-1.5,4.3c-0.5,1.3-1,2.2-1.4,2.7c-0.3,0.3-0.6,0.4-0.9,0.4c-0.8,0-1.4-0.3-1.9-0.8s-0.7-1.2-0.7-2.1
		s0.1-1.7,0.3-2.5s0.5-1.6,0.9-2.5c0.8-1.7,1.8-3.3,3.1-4.8c0.8-2.1,2.1-4.2,4-6.2c1.1-1.2,2.2-2.1,3.2-2.6c0.5-0.3,0.9-0.4,1.2-0.4
		s0.6,0.1,0.8,0.2c0.2,0.2,0.3,0.3,0.3,0.6c0,0.2-0.1,0.5-0.2,0.9c-0.1,0.4-0.3,0.7-0.6,1.2C48.7,10,48.4,10.5,48,11l-1,1.5
		c0,0.1,0,0.3,0,0.4c0,0.2,0.1,0.2,0.3,0.2s0.6-0.1,1.2-0.4l2-0.9c1.8-0.8,3.5-1.2,5.1-1.2c0.8,0,1.6,0.4,2.4,1.2
		c0.7,0.8,1.1,1.7,1.1,2.6c0,1.4-0.6,2.5-1.8,3.3l-1.6,1c-0.6,0.4-1.1,0.7-1.7,1l-1.8,1c-2,1.1-3.6,1.6-4.7,1.6
		c-1.1,0-1.9-0.1-2.4-0.4s-0.8-0.7-0.8-1.2C44.3,20,44.8,19.5,46,19z"/>
	<path class="st0" d="M70,22.7c-1.7,0-3.4-1.1-5.1-3.3l-1.5,1.1c-1.6,1.1-2.6,1.7-3.1,1.7c-0.6,0-1.1-0.2-1.6-0.7
		c-0.1-0.1-0.2-0.3-0.3-0.4C58.2,20.8,58,20,58,18.7s0.1-2.5,0.4-3.7s0.7-2.2,1.1-3.2c0.7-1.5,1.9-3.2,3.4-5.1
		c0.9-1.3,1.9-2.3,3.2-3.1c1.1-0.7,2-1,2.7-1c0.4,0,0.7,0.1,1,0.3s0.4,0.4,0.4,0.7s-0.1,0.6-0.4,1c-2.8,4-4.4,6.4-4.8,7.1
		c-0.4,0.7-0.7,1.2-0.9,1.6c-0.2,0.4-0.3,0.6-0.4,0.8s-0.2,0.4-0.2,0.6c-0.2,0.5-0.3,0.8-0.3,1s0.2,0.3,0.5,0.3s1.1-0.8,2.3-2.3
		l1.7-2.1c0.6-0.8,1.3-1.3,1.9-1.6c0.7-0.3,1.2-0.4,1.7-0.4c1.4,0,2.1,0.3,2.1,1c0,0.6-0.5,1.5-1.4,2.6c-0.1,0.1-0.3,0.3-0.5,0.5
		l-1.7,1.6l-1.1,1c0.8,0.9,1.6,1.6,2.3,2c0.2,0.1,0.3,0.1,0.4,0.1s0.3-0.1,0.7-0.2c0.3-0.2,0.7-0.4,1.1-0.6s0.8-0.5,1.3-0.8l3.5-2.5
		c0.3-0.2,0.6-0.4,0.9-0.4c0.6,0,0.9,0.3,0.9,0.8c0,0.7-0.3,1.5-1,2.4c-0.2,0.3-0.4,0.5-0.6,0.7l-0.8,0.7c-2.3,2.1-4.3,3.5-6.1,4.2
		C71,22.6,70.5,22.7,70,22.7z"/>
	<path class="st0" d="M91.4,14.3c0,0.5,0.4,0.7,1.2,0.7c0.6,0,1.3-0.3,2.2-0.8l1-0.6c0.3-0.2,0.6-0.3,0.8-0.3s0.4,0.1,0.5,0.2
		c0.1,0.1,0.2,0.3,0.2,0.6S97.2,14.6,97,15s-0.4,0.7-0.7,1c-0.3,0.4-0.6,0.7-1,1.1s-0.8,0.7-1.3,1c-1,0.6-1.9,0.9-2.8,0.9
		s-1.6-0.2-2.2-0.5c-0.2-0.1-0.3-0.2-0.5-0.3c-0.9,1-2.2,2-3.9,2.8c-1.8,0.9-3.4,1.4-4.8,1.4s-2.5-0.6-3.4-1.7c-0.7-0.9-1-1.8-1-2.8
		c0-1.3,0.7-2.6,2.2-3.8c1.1-0.9,2.1-1.6,3.1-2c1-0.5,1.9-0.8,2.7-1.1c1.7-0.5,3.2-0.8,4.6-0.8c0.6,0,1.1,0.1,1.6,0.3
		s0.8,0.5,1.1,0.7c0.5,0.5,0.8,1.2,0.8,2c0,0.2,0,0.4-0.1,0.6S91.4,14.2,91.4,14.3z M81.1,16.7L81.1,16.7L81.1,16.7
		c0,0.4,0.1,0.6,0.2,0.8c0.4,0.2,0.8,0.3,1.2,0.2c0.4-0.1,0.8-0.3,1.2-0.4c1-0.4,1.8-0.9,2.6-1.6c-0.1-0.3-0.2-0.5-0.2-0.8
		c0-0.6,0.3-1.2,0.8-1.8c-0.7,0-1.6,0.3-2.7,0.9c-1.3,0.7-2.2,1.4-2.8,2.2C81.2,16.4,81.1,16.6,81.1,16.7z"/>
	<path class="st0" d="M94.5,17.9c-0.2,0-0.3,0-0.5-0.1s-0.3-0.2-0.4-0.4c-0.3-0.4-0.4-0.9-0.4-1.5c0-0.7,0.4-1.5,1.2-2.5
		c0.8-1,1.7-1.8,2.8-2.5c1.1-0.8,2.1-1.2,2.9-1.2c0.7,0,1.2,0.2,1.4,0.6l0.2,0.3c0.1,0.2,0.3,0.3,0.4,0.3s0.3,0,0.6,0l1.8-0.1
		c0.3,0,0.5,0,0.7,0s0.3,0.1,0.5,0.2c0.2,0.1,0.4,0.3,0.5,0.4c0.4,0.4,0.5,0.9,0.5,1.4s-0.6,1.3-1.7,2.5l-0.8,0.8
		c-0.6,0.6-0.9,1-0.9,1.2s0.1,0.3,0.2,0.4c0.2,0.1,0.3,0.2,0.5,0.2s0.4,0,0.6-0.1s0.5-0.2,0.8-0.4c0.3-0.2,0.7-0.4,1.1-0.7
		c1.2-0.8,1.9-1.3,2.3-1.6l1-0.7c0.7-0.5,1.2-0.8,1.5-0.8s0.5,0.1,0.7,0.2s0.3,0.4,0.3,0.7s-0.2,0.7-0.5,1.3c-0.3,0.6-0.7,1-1.1,1.4
		s-0.8,0.8-1.1,1.1c-0.4,0.3-0.8,0.7-1.3,1.1s-1,0.8-1.6,1.2s-1.2,0.8-1.9,1.1c-1.5,0.7-2.9,1.1-4.1,1.1c-1.8,0-3-0.5-3.4-1.4
		c-0.1-0.3-0.2-0.6-0.2-1s0.1-0.7,0.2-1.1s0.3-0.8,0.5-1.2c0.4-0.8,1-1.5,1.6-2.1c0.5-0.5,0.8-0.8,0.8-0.9c0-0.2-0.1-0.3-0.3-0.3
		c-0.2,0-0.4-0.1-0.8-0.1c-0.2,0-0.5,0.2-1,0.7L97,16.2C95.7,17.3,94.9,17.9,94.5,17.9z"/>
	<path class="st0" d="M124.2,15.3c0,0.8,0.2,1.1,0.7,1.1c1.1,0,2.5-0.7,4.3-2.2l0.3-0.3c0.7-0.5,1.2-0.7,1.7-0.7
		c0.4,0,0.7,0.1,0.8,0.2c0.1,0.1,0.2,0.3,0.2,0.6c0,0.6-0.3,1.3-0.9,2c-0.9,1.1-2.2,2.2-3.9,3.3c-1.9,1.2-3.6,1.8-5.1,1.8
		c-1.1,0-1.7-0.6-2-1.8c-0.1-0.3-0.1-0.6-0.2-0.9c-0.1-0.7-0.2-1-0.3-1.1c-0.1-0.1-0.3-0.1-0.5,0c-0.3,0.1-0.6,0.2-1,0.4
		c-0.4,0.2-0.8,0.5-1.2,0.8c-2.4,1.6-3.8,2.5-4.1,2.7c-0.9,0.5-1.5,0.8-1.8,0.8s-0.6-0.1-0.9-0.2s-0.5-0.3-0.8-0.5
		c-0.5-0.4-0.7-0.9-0.7-1.3c0-2.5,0.6-4.8,1.7-6.7c0.7-1.3,1.6-2.2,2.7-2.7c0.5-0.3,1.1-0.4,1.8-0.4c1.2,0,1.7,0.4,1.7,1.1
		c0,0.5-0.3,1.2-0.8,2.3l-0.4,0.7c-0.3,0.5-0.4,0.8-0.4,0.9c0.1,0.3,0.2,0.4,0.3,0.4c0.2,0,0.5-0.1,0.9-0.4l2.3-1.7l1.2-0.8
		c1.3-0.9,2.3-1.3,3-1.3c0.3,0,0.6,0.1,0.9,0.4c0.5,0.5,0.8,0.9,0.8,1.3c0,0.1,0,0.3,0,0.4s0,0.3-0.1,0.5l-0.1,0.6
		C124.2,15,124.2,15.2,124.2,15.3z"/>
</g>
</svg>
