<?xml version="1.0" encoding="utf-8"?>
<!-- Generator: Adobe Illustrator 20.1.0, SVG Export Plug-In . SVG Version: 6.00 Build 0)  -->
<svg version="1.1" id="Layer_1" xmlns="http://www.w3.org/2000/svg" xmlns:xlink="http://www.w3.org/1999/xlink" x="0px" y="0px"
	 viewBox="0 0 100 100" style="enable-background:new 0 0 100 100;" xml:space="preserve">
<style type="text/css">
	.st0{fill:#F9F9F7;}
</style>
<path class="st0" d="M74.5,92.5c-2.7,0-5.2-0.5-7.6-1.7c-0.3-0.1-0.4-0.1-0.7-0.3C41.9,78.1,21.9,58.1,9.5,34c0-0.3-0.1-0.5-0.3-0.7
	c-1.2-2.4-1.7-5.1-1.7-7.6c0-10.3,9-18.1,14.9-18.1c0.8,0,1.2,0.4,1.5,0.7c0,0,0.1,0.1,0.3,0.4c0.1,0.1,0.1,0.3,0.3,0.4l14,18
	c0.1,0.1,0.3,0.3,0.4,0.4c0.3,0.3,0.7,0.8,0.7,1.5c0,0.4-0.1,0.7-0.3,1.1l-4.7,4.7l0,0c-1.7,1.6-2.7,3.9-2.7,6.2
	c0,2.1,0.8,4.3,2.3,5.9c0,0.1,0.1,0.1,0.1,0.3c5.1,7,11.5,13.4,18.9,18.8l0.1,0.1c1.6,1.5,3.6,2.4,5.9,2.4s4.3-0.9,5.9-2.4
	c0.1-0.1,0.1-0.1,0.3-0.3l4.7-4.8c0.3-0.3,0.7-0.3,1.1-0.3c0.8,0,1.2,0.4,1.5,0.7c0.1,0.1,0.3,0.3,0.4,0.4l18,14
	c0.1,0.1,0.3,0.1,0.4,0.3c0.3,0.1,0.3,0.3,0.4,0.3c0.3,0.3,0.7,0.7,0.7,1.5c0,0.1,0,0.3,0,0.4C92.2,83.9,84.6,92.5,74.5,92.5z"/>
</svg>
