<?xml version="1.0" encoding="utf-8"?>
<!-- Generator: Adobe Illustrator 20.1.0, SVG Export Plug-In . SVG Version: 6.00 Build 0)  -->
<svg version="1.1" id="Layer_1" xmlns="http://www.w3.org/2000/svg" xmlns:xlink="http://www.w3.org/1999/xlink" x="0px" y="0px"
	 viewBox="0 0 50 50" style="enable-background:new 0 0 50 50;" xml:space="preserve">
<style type="text/css">
	.st0{fill:#F9F9F7;}
</style>
<path class="st0" d="M25,0.8C11.6,0.8,0.8,11.6,0.8,25S11.6,49.2,25,49.2S49.2,38.4,49.2,25S38.4,0.8,25,0.8z M37,18.8
	c0,0.3,0,0.5,0,0.8c0,8.2-6.2,17.7-17.7,17.7c-3.5,0-6.8-1-9.5-2.8c0.5,0.1,1,0.1,1.5,0.1c2.9,0,5.6-1,7.7-2.7c-2.7,0-5-1.8-5.8-4.3
	c0.4,0.1,0.8,0.1,1.2,0.1c0.6,0,1.1-0.1,1.6-0.2c-2.8-0.6-5-3.1-5-6.1c0,0,0-0.1,0-0.1c0.8,0.5,1.8,0.7,2.8,0.8
	c-1.7-1.1-2.8-3-2.8-5.2c0-1.1,0.3-2.2,0.8-3.1c3.1,3.8,7.6,6.2,12.8,6.5c-0.1-0.5-0.2-0.9-0.2-1.4c0-3.4,2.8-6.2,6.2-6.2
	c1.8,0,3.4,0.8,4.5,2c1.4-0.3,2.7-0.8,3.9-1.5c-0.5,1.5-1.4,2.7-2.7,3.4c1.3-0.1,2.5-0.5,3.6-1C39.3,16.9,38.3,17.9,37,18.8L37,18.8
	z"/>
</svg>
